<svg width="32" height="32" viewBox="0 0 32 32" fill="none" xmlns="http://www.w3.org/2000/svg">
<path d="M18.6667 2.66669V8.00002C18.6667 8.70726 18.9477 9.38554 19.4478 9.88564C19.9479 10.3857 20.6261 10.6667 21.3334 10.6667H26.6667M12 20L14.6667 22.6667L20 17.3334M20 2.66669H8.00004C7.2928 2.66669 6.61452 2.94764 6.11442 3.44774C5.61433 3.94783 5.33337 4.62611 5.33337 5.33335V26.6667C5.33337 27.3739 5.61433 28.0522 6.11442 28.5523C6.61452 29.0524 7.2928 29.3334 8.00004 29.3334H24C24.7073 29.3334 25.3856 29.0524 25.8857 28.5523C26.3858 28.0522 26.6667 27.3739 26.6667 26.6667V9.33335L20 2.66669Z" stroke="#FF416C" stroke-width="2" stroke-linecap="round" stroke-linejoin="round"/>
</svg>
