<svg width="32" height="32" viewBox="0 0 32 32" fill="none" xmlns="http://www.w3.org/2000/svg">
<path d="M18.6666 2.6665V7.99984C18.6666 8.70708 18.9476 9.38536 19.4477 9.88546C19.9478 10.3856 20.6261 10.6665 21.3333 10.6665H26.6666M12 19.9998L14.6666 22.6665L20 17.3332M20 2.6665H7.99998C7.29274 2.6665 6.61446 2.94746 6.11436 3.44755C5.61426 3.94765 5.33331 4.62593 5.33331 5.33317V26.6665C5.33331 27.3737 5.61426 28.052 6.11436 28.5521C6.61446 29.0522 7.29274 29.3332 7.99998 29.3332H24C24.7072 29.3332 25.3855 29.0522 25.8856 28.5521C26.3857 28.052 26.6666 27.3737 26.6666 26.6665V9.33317L20 2.6665Z" stroke="#FF416C" stroke-width="2" stroke-linecap="round" stroke-linejoin="round"/>
</svg>
