<svg width="32" height="32" viewBox="0 0 32 32" fill="none" xmlns="http://www.w3.org/2000/svg">
<path d="M19.3333 5.3335H12.6667L9.33332 9.3335H5.33332C4.62608 9.3335 3.9478 9.61445 3.4477 10.1145C2.94761 10.6146 2.66666 11.2929 2.66666 12.0002V24.0002C2.66666 24.7074 2.94761 25.3857 3.4477 25.8858C3.9478 26.3859 4.62608 26.6668 5.33332 26.6668H26.6667C27.3739 26.6668 28.0522 26.3859 28.5523 25.8858C29.0524 25.3857 29.3333 24.7074 29.3333 24.0002V12.0002C29.3333 11.2929 29.0524 10.6146 28.5523 10.1145C28.0522 9.61445 27.3739 9.3335 26.6667 9.3335H22.6667L19.3333 5.3335Z" stroke="#FF416C" stroke-width="2" stroke-linecap="round" stroke-linejoin="round"/>
<path d="M16 21.3335C18.2091 21.3335 20 19.5426 20 17.3335C20 15.1244 18.2091 13.3335 16 13.3335C13.7909 13.3335 12 15.1244 12 17.3335C12 19.5426 13.7909 21.3335 16 21.3335Z" stroke="#FF416C" stroke-width="2" stroke-linecap="round" stroke-linejoin="round"/>
</svg>
